<?xml version="1.0" encoding="UTF-8"?>
<svg id="Layer_1" xmlns="http://www.w3.org/2000/svg" version="1.1" viewBox="0 0 1920 1080">
  <!-- Generator: Adobe Illustrator 29.6.1, SVG Export Plug-In . SVG Version: 2.1.1 Build 9)  -->
  <defs>
    <style>
      .st0 {
        fill: #221f1f;
      }

      .st1 {
        fill: #919090;
      }

      .st2 {
        fill: #231f20;
      }

      .st3 {
        fill: #070707;
      }
    </style>
  </defs>
  <path class="st3" d="M330.74,609.21l-36.68-454.14,371.94-57.58-17,94.5-265.89,57.96,10.38,88.2,231.51-61.16-24,95-199.91,30.69,7.91,197.31-78.26,9.21h0Z"/>
  <path class="st3" d="M657,572.77c-2.33-98.92-4.67-197.85-7-296.77,74.79-11.33,149.57-22.67,224.36-34-.21,22.88-.42,45.77-.63,68.65-50.09,11.12-100.18,22.23-150.27,33.35,3.51,22.2,7.03,44.4,10.54,66.61l126-32.61c.82,22.24,1.64,44.49,2.46,66.73-40.49,4.76-80.97,9.51-121.46,14.27,2,13.33,4,26.67,6,40,47.67-4.67,95.33-9.33,143-14-4.67,24.33-9.33,48.67-14,73-73,4.92-146,9.85-219,14.77h0Z"/>
  <path class="st1" d="M313,609.21c-10.83-132.4-21.67-264.81-32.5-397.21-10.83,38.67-21.67,77.33-32.5,116,21.67,93.74,43.33,187.47,65,281.21Z"/>
  <path class="st1" d="M253,493c17.67,38.74,35.33,77.47,53,116.21-23.33-30.74-46.67-61.47-70-92.21,5.67-8,11.33-16,17-24Z"/>
  <path class="st3" d="M1090.41,258.16c-53.79-6.66-107.58-13.3-161.37-19.96-2.31,107.99-4.63,215.98-6.94,323.96,50.38-.47,100.77-.96,151.16-1.43,16.32-17.33,32.63-34.65,48.95-51.98l14.59-151.46c-15.46-33.04-30.92-66.08-46.38-99.14h0ZM1060,456c-7.33,12.33-14.67,24.67-22,37h-43v-173h38c9,13.33,18,26.67,27,40v96Z"/>
  <path class="st3" d="M650,636c23.33-3.33,46.67-6.67,70-10-3.33,37.67-6.67,75.33-10,113l27,51c24-7.33,48-14.67,72-22,5.33-20,10.67-40,16-60-3-29.67-6-59.33-9-89h63c3.67,48.33,7.33,96.67,11,145-17.67,30.67-35.33,61.33-53,92-46.33,3-92.67,6-139,9-20-32.67-40-65.33-60-98,4-43.67,8-87.33,12-131Z"/>
  <path class="st3" d="M1128,699c-3.33-17.67-6.67-35.33-10-53-23.67-12.26-47.33-24.53-71-36.79-43,6.26-86,12.53-129,18.79,1.67,76.33,3.33,152.67,5,229h84.73c-2.63-35.9-5.27-71.8-7.9-107.71l97.17-7.29c10.33-14.33,20.67-28.67,31-43ZM1060,697.49c-19.76,1.76-39.53,3.51-59.29,5.27-.29-14.34-.59-28.68-.88-43.02,16.98-2.93,33.95-5.85,50.93-8.78,10.24,9.95,20.49,19.9,30.73,29.85l-21.49,16.68h0Z"/>
  <path class="st1" d="M666,865l-144.79-123c6.76-22.64,13.52-45.28,20.28-67.93,41.5,63.64,83.01,127.28,124.51,190.93h0Z"/>
  <path class="st1" d="M556.71,661.2c22.63,31.22,45.27,62.44,67.9,93.66-3.12-37.85-6.24-75.71-9.37-113.56-19.51,6.63-39.02,13.27-58.54,19.9h0Z"/>
  <path class="st1" d="M417.39,599.15c3.51-53.85,7.02-107.71,10.54-161.56,23.02-7.02,46.05-14.05,69.07-21.07-26.54,60.88-53.07,121.76-79.61,182.63Z"/>
  <path class="st1" d="M451.34,594.46c9.56-24.98,19.13-49.95,28.69-74.93,5.66,10.52,11.31,21.05,16.97,31.57-15.22,14.45-30.44,28.91-45.66,43.36Z"/>
  <g>
    <path class="st1" d="M1128.01,256.84c26.54,3.12,53.07,6.24,79.61,9.37,28.88,46.95,57.76,93.9,86.63,140.85-26.93,51-53.85,102-80.78,153h-74.93l66.73-153c-25.76-50.07-51.51-100.15-77.27-150.22h.01Z"/>
    <path class="st1" d="M1256.03,259.57c21.07,2.21,42.15,4.42,63.22,6.63,28.88,46.95,57.76,93.9,86.63,140.85-26.93,51-53.85,102-80.78,153h-60.1c24.2-50.72,48.39-101.44,72.59-152.17-27.19-49.44-54.37-98.88-81.56-148.32h0Z"/>
    <path class="st1" d="M1361.95,265.75c15.6,1.4,31.2,2.8,46.8,4.2,28.57,47.14,57.15,94.27,85.72,141.41-27.26,50.83-54.51,101.65-81.77,152.48l-45.27-.29c26.47-50.27,52.94-100.55,79.41-150.82-28.3-48.99-56.61-97.98-84.91-146.97h.02Z"/>
    <path class="st1" d="M1441.77,267.28c10.15.39,20.29.78,30.44,1.17,28.88,46.95,57.76,93.9,86.63,140.85-26.93,51-53.85,102-80.78,153h-30.44c28.1-50.17,56.2-100.33,84.29-150.5-30.05-48.17-60.1-96.35-90.15-144.52h.01Z"/>
  </g>
  <path class="st2" d="M1146.76,874.01c79.61,39.11,159.22,78.22,238.83,117.33,20.68-35.12,41.37-70.24,62.05-105.37,65.17-3.99,130.34-7.98,195.51-11.96,28.1-34.82,56.2-69.65,84.29-104.47-145.95-1.08-291.9-2.17-437.85-3.25l-142.83,107.73h0Z"/>
  <path class="st1" d="M1269.68,588.61c-22.63,10.13-45.27,20.26-67.9,30.39,2.73,30.46,5.46,60.91,8.2,91.37-22.63,10.54-45.27,21.09-67.9,31.63,1.56,44,3.12,88.01,4.68,132.01,44.49,2.39,88.98,4.78,133.46,7.16,23.02-19.69,46.05-39.38,69.07-59.07,15.22,6.07,30.44,12.14,45.66,18.21,35.11-13.41,70.23-26.83,105.34-40.24-1.94-34-3.89-68-5.83-102-23.81-2.54-47.61-5.07-71.42-7.61-1.56-34.73-3.12-69.46-4.68-104.2-49.56.78-99.12,1.56-148.68,2.34h0Z"/>
  <path class="st0" d="M1255.93,837.39c-3.39-7.82-6.6-18.47-6.99-26.61l-4.95,10.01c-4.75-4.31-10.28-7.94-16.42-10.39-7.06-2.86-14.87-4.13-22.51-3.61-7.66.43-15.18,2.77-21.69,6.55-3.26,1.89-6.27,4.14-8.96,6.68-2.68,2.55-5.08,5.38-6.95,8.54l.72.7c6.09-3.77,12.1-6.99,18.38-9.2,6.23-2.27,12.59-3.64,19.02-3.93,6.43-.4,12.87.43,19.08,2.36,5.01,1.53,9.85,3.81,14.5,6.59l-9.55,4.23c8.12.73,18.63,4.38,26.3,8.1l.02-.02h0Z"/>
  <path class="st0" d="M1488.55,771.05c-5.56-6.45-11.8-15.67-14.59-23.33l-1.75,11.02c-5.82-2.7-12.18-4.52-18.77-5.04-7.59-.63-15.42.48-22.56,3.25-7.19,2.69-13.67,7.16-18.76,12.7-2.55,2.77-4.75,5.81-6.56,9.05-1.8,3.23-3.25,6.65-4.09,10.22l.89.45c4.69-5.41,9.48-10.27,14.81-14.25,5.27-4.02,10.94-7.22,16.99-9.41,6.02-2.29,12.42-3.42,18.92-3.43,5.24-.03,10.54.71,15.81,1.98l-7.86,6.88c7.97-1.72,19.09-1.36,27.52-.09h0Z"/>
  <path class="st0" d="M1301.95,690.82c-1.4-6.89-2.17-16.05-1.09-22.69l-5.71,7.23c-3.1-4.3-6.95-8.17-11.49-11.21-5.21-3.52-11.3-5.88-17.56-6.77-6.26-.97-12.74-.36-18.64,1.57-2.95.97-5.77,2.27-8.38,3.86-2.6,1.6-5.03,3.48-7.07,5.71l.46.69c5.56-2.01,10.97-3.57,16.42-4.29,5.42-.77,10.79-.79,16.04.08,5.26.78,10.33,2.55,15.01,5.17,3.78,2.09,7.3,4.76,10.59,7.81l-8.44,1.78c6.43,1.98,14.3,6.73,19.86,11.04v.02h0Z"/>
  <g>
    <path class="st3" d="M141.61,717.56c-.2-2.06-1.08-3.67-2.63-4.81s-3.66-1.71-6.32-1.71c-1.81,0-3.33.25-4.58.75s-2.19,1.2-2.85,2.08c-.66.89-.98,1.89-.98,3.02-.03.94.17,1.76.6,2.45.44.7,1.04,1.3,1.8,1.8.77.5,1.65.94,2.66,1.3,1.01.37,2.08.68,3.22.93l4.7,1.12c2.28.51,4.38,1.19,6.29,2.05,1.91.85,3.56,1.9,4.96,3.14,1.4,1.24,2.48,2.71,3.26,4.4s1.17,3.62,1.19,5.8c-.02,3.2-.83,5.98-2.44,8.32s-3.93,4.16-6.95,5.45c-3.03,1.29-6.67,1.93-10.93,1.93s-7.91-.65-11.03-1.94c-3.13-1.29-5.57-3.22-7.31-5.77-1.75-2.55-2.66-5.71-2.75-9.47h10.71c.12,1.76.63,3.22,1.52,4.38.89,1.17,2.1,2.05,3.6,2.63,1.5.58,3.22.88,5.13.88s3.51-.27,4.9-.82c1.39-.54,2.47-1.3,3.23-2.28.77-.97,1.15-2.09,1.15-3.35,0-1.18-.35-2.16-1.04-2.97-.69-.8-1.7-1.48-3.02-2.04s-2.94-1.07-4.85-1.53l-5.7-1.43c-4.41-1.07-7.9-2.75-10.46-5.04-2.56-2.28-3.83-5.36-3.81-9.23-.02-3.17.83-5.94,2.54-8.31s4.07-4.22,7.07-5.55,6.41-1.99,10.23-1.99,7.28.66,10.19,1.99,5.17,3.18,6.79,5.55,2.45,5.11,2.51,8.23h-10.61v.04Z"/>
    <path class="st3" d="M160.35,754.86v-52.36h35.28v9.13h-24.21v12.48h22.4v9.13h-22.4v12.5h24.32v9.13h-35.39Z"/>
    <path class="st3" d="M248.26,702.5v52.36h-9.56l-22.78-32.96h-.38v32.96h-11.07v-52.36h9.72l22.6,32.93h.46v-32.93h11.02-.01Z"/>
    <path class="st3" d="M275.95,754.86h-18.56v-52.36h18.72c5.27,0,9.8,1.04,13.6,3.13s6.73,5.08,8.78,8.99,3.08,8.57,3.08,14.01-1.03,10.14-3.08,14.06-4.99,6.93-8.82,9.03c-3.83,2.1-8.4,3.14-13.72,3.14h0ZM268.46,745.38h7.03c3.27,0,6.03-.58,8.27-1.75s3.93-2.98,5.06-5.45c1.13-2.46,1.7-5.65,1.7-9.55s-.57-7.03-1.7-9.49c-1.13-2.45-2.82-4.26-5.05-5.42-2.23-1.16-4.99-1.74-8.26-1.74h-7.06v33.39h.01Z"/>
    <path class="st3" d="M337.51,702.5v52.36h-11.07v-52.36h11.07Z"/>
    <path class="st3" d="M344.65,711.62v-9.13h43.01v9.13h-16.03v43.24h-10.94v-43.24h-16.04Z"/>
    <path class="st1" d="M422.53,702.5v52.36h-11.07v-52.36h11.07Z"/>
    <path class="st1" d="M475.45,702.5v52.36h-9.56l-22.78-32.96h-.38v32.96h-11.07v-52.36h9.72l22.6,32.93h.46v-32.93h11.02,0Z"/>
    <path class="st1" d="M139.34,841.26h-11.86l18.08-52.36h14.27l18.05,52.36h-11.86l-13.12-40.4h-.41l-13.14,40.4h-.01ZM138.6,820.68h28.02v8.64h-28.02v-8.64Z"/>
    <path class="st3" d="M200.85,788.9h13.65l14.42,35.18h.61l14.42-35.18h13.65v52.36h-10.74v-34.08h-.43l-13.55,33.83h-7.31l-13.55-33.95h-.44v34.21h-10.74v-52.36h.01Z"/>
    <path class="st3" d="M277.79,788.9v52.36h-11.07v-52.36h11.07Z"/>
    <path class="st3" d="M330.71,788.9v52.36h-9.56l-22.78-32.96h-.38v32.96h-11.07v-52.36h9.72l22.6,32.93h.46v-32.93h11.02,0Z"/>
    <path class="st3" d="M372.18,788.9h11.07v34c0,3.82-.91,7.16-2.72,10.02-1.81,2.86-4.35,5.09-7.61,6.69-3.26,1.59-7.05,2.39-11.38,2.39s-8.15-.8-11.4-2.39c-3.26-1.59-5.79-3.82-7.59-6.69-1.81-2.86-2.71-6.2-2.71-10.02v-34h11.07v33.06c0,1.99.44,3.77,1.32,5.32s2.12,2.77,3.72,3.66c1.6.89,3.47,1.33,5.6,1.33s4.02-.44,5.61-1.33,2.83-2.11,3.71-3.66,1.32-3.32,1.32-5.32v-33.06h-.01Z"/>
    <path class="st3" d="M390.36,798.03v-9.13h43.01v9.13h-16.03v43.24h-10.94v-43.24h-16.04Z"/>
    <path class="st3" d="M440.48,841.26v-52.36h35.28v9.13h-24.21v12.48h22.4v9.13h-22.4v12.5h24.32v9.13h-35.39Z"/>
  </g>
</svg>